<?xml version="1.0" encoding="UTF-8"?>
<svg id="_喇뒨쏛_2" data-name="喇뒨쏛 2" xmlns="http://www.w3.org/2000/svg" viewBox="0 0 67.62 69.42">
  <defs>
    <style>
      .cls-1 {
        fill: #005bac;
      }
    </style>
  </defs>
  <g id="_喇뒨쏛_1-2" data-name="喇뒨쏛 1">
    <g>
      <g>
        <path class="cls-1" d="M11.61,9.81C4.94,16.16.09,25.21,0,35.36c-.16,16.61,10.11,31.88,32.32,34.06v-21.4l-20.7-12.34V10.82s0-1.01,0-1.01Z"/>
        <path class="cls-1" d="M56.26,9.85c6.67,6.35,11.27,15.36,11.36,25.51.15,16.61-9.9,31.88-32.11,34.06v-21.4l20.76-12.35V9.85Z"/>
      </g>
      <path class="cls-1" d="M33.91,0L15.08,11.23v22.46l18.83,11.23,18.84-11.23V11.23L33.91,0ZM33.91,34.5c-6.39,0-11.58-5.39-11.58-12.04s5.19-12.04,11.58-12.04,11.58,5.39,11.58,12.04-5.18,12.04-11.58,12.04Z"/>
    </g>
  </g>
</svg>